PathFileType	4	(X/Y/Z)	C:/Users/cmwille/Documents/OptiTrack/OpenSim_Lab5_04202021/group4_jump_2.trc
DataRate	CameraRate	NumFrames	NumMarkers	Units	OrigDataRate	OrigDataStartFrame	OrigNumFrames
200	200	9	39	m	200	0	841
Frame#	Time	L.ASIS			L.Acromium			L.Ankle.Lat			L.Ankle.Med			L.Heel			L.Knee.Lat			L.Knee.Med			L.Midfoot.Lat			L.Midfoot.Sup			L.Shank.Front			L.Shank.Rear			L.Shank.Upper			L.Thigh.Front			L.Thigh.Rear			L.Thigh.Upper			L.Toe.Lat			L.Toe.Med			L.Toe.Tip			R.ASIS			R.Acromium			R.Ankle.Lat			R.Ankle.Med			R.Heel			R.Knee.Lat			R.Knee.Med			R.Midfoot.Lat			R.Midfoot.Sup			R.Shank.Front			R.Shank.Rear			R.Shank.Upper			R.Thigh.Front			R.Thigh.Rear			R.Thigh.Upper			R.Toe.Lat			R.Toe.Med			R.Toe.Tip			Sternum			Top.Head			V.Sacral			
		X1	Y1	Z1	X2	Y2	Z2	X3	Y3	Z3	X4	Y4	Z4	X5	Y5	Z5	X6	Y6	Z6	X7	Y7	Z7	X8	Y8	Z8	X9	Y9	Z9	X10	Y10	Z10	X11	Y11	Z11	X12	Y12	Z12	X13	Y13	Z13	X14	Y14	Z14	X15	Y15	Z15	X16	Y16	Z16	X17	Y17	Z17	X18	Y18	Z18	X19	Y19	Z19	X20	Y20	Z20	X21	Y21	Z21	X22	Y22	Z22	X23	Y23	Z23	X24	Y24	Z24	X25	Y25	Z25	X26	Y26	Z26	X27	Y27	Z27	X28	Y28	Z28	X29	Y29	Z29	X30	Y30	Z30	X31	Y31	Z31	X32	Y32	Z32	X33	Y33	Z33	X34	Y34	Z34	X35	Y35	Z35	X36	Y36	Z36	X37	Y37	Z37	X38	Y38	Z38	X39	Y39	Z39
0	0	0.381808	1.03471	2.31173	0.460152	1.52318	2.18205	0.488873	0.119449	2.12313	0.380753	0.12324	2.14511	0.424442	0.0718019	2.03657	0.455131	0.531299	2.212	0.331106	0.506213	2.21836	0.516273	0.0447162	2.16879	0.38599	0.0426193	2.20499	0.412339	0.44484	2.23892	0.465879	0.367395	2.20527	0.466635	0.480873	2.18055	0.477345	0.705457	2.23617	0.409883	0.620004	2.10262	0.410386	0.703338	2.10291	0.521756	0.0582697	2.27657	0.391815	0.0510385	2.28398	0.449514	0.0691681	2.34581	0.0713863	1.06147	2.24831	0.0549677	1.51584	2.16671	-0.0388116	0.131205	2.1288	0.0680888	0.133075	2.16096	0.02132	0.0715775	2.05299	0.00866277	0.5357	2.2062	0.132526	0.528364	2.22159	-0.0955009	-0.0400047	2.1452	0.0581005	0.0458055	2.21204	0.0532256	0.468765	2.23127	0.0102931	0.382248	2.21731	-0.00215192	0.486993	2.17986	0.00487113	0.726202	2.26758	0.0187055	0.635422	2.12208	0.0271756	0.710632	2.11399	-0.0909173	0.0406595	2.2555	0.0440944	0.0491566	2.2865	-0.0173855	0.0718726	2.3574	0.249411	1.35671	2.35728	0.124906	1.83448	2.37848	0.252805	1.07865	2.11105
1	0.005	0.381774	1.03467	2.31181	0.460032	1.52318	2.18191	0.48886	0.11947	2.12313	0.380743	0.123216	2.14511	0.424694	0.071794	2.03716	0.455118	0.531293	2.21204	0.331093	0.506197	2.2184	0.516249	0.044714	2.16878	0.385995	0.0426195	2.20498	0.412351	0.444851	2.23896	0.465871	0.367395	2.20529	0.466602	0.480875	2.18059	0.477315	0.705451	2.23622	0.409836	0.620009	2.10268	0.410483	0.703088	2.10295	0.521756	0.0582789	2.27656	0.391818	0.0510439	2.28398	0.449519	0.0691634	2.34582	0.0713356	1.06148	2.24849	0.0548123	1.51579	2.16686	-0.0387813	0.131201	2.12881	0.0680914	0.133085	2.16097	0.0213128	0.0715854	2.05299	0.00864943	0.535713	2.20628	0.132496	0.528365	2.22164	-0.0954323	-0.0398006	2.14526	0.0581059	0.0458015	2.21205	0.0532145	0.468762	2.23133	0.0102896	0.382241	2.21736	-0.00216863	0.487006	2.17992	0.00486234	0.726182	2.26771	0.0186591	0.635436	2.12216	0.0271161	0.71066	2.11409	-0.0908953	0.0406686	2.25551	0.0440956	0.0491498	2.28652	-0.0173904	0.0718719	2.3574	0.249429	1.35677	2.3574	0.126264	1.83459	2.3798	0.252755	1.07866	2.11115
2	0.01	0.381743	1.03463	2.31189	0.459911	1.52318	2.18177	0.488846	0.119491	2.12313	0.380733	0.123193	2.14512	0.424945	0.071786	2.03775	0.455105	0.531286	2.21209	0.33108	0.506181	2.21845	0.516225	0.0447117	2.16878	0.386	0.0426196	2.20496	0.412364	0.444861	2.23901	0.465864	0.367394	2.20532	0.466568	0.480877	2.18063	0.477285	0.705444	2.23627	0.40979	0.620016	2.10274	0.410579	0.702839	2.10298	0.521756	0.058288	2.27655	0.391821	0.0510492	2.28399	0.449524	0.0691589	2.34582	0.0712887	1.06149	2.24867	0.0546588	1.51573	2.16702	-0.0387567	0.131197	2.12882	0.068091	0.133095	2.16098	0.0213069	0.0715931	2.05298	0.00863388	0.535727	2.20635	0.132468	0.528371	2.2217	-0.0953636	-0.0395966	2.14532	0.0581102	0.0457983	2.21206	0.0532002	0.468761	2.23139	0.0102832	0.382236	2.21741	-0.00218809	0.48702	2.17999	0.00485031	0.726163	2.26783	0.0186129	0.635453	2.12224	0.0270589	0.710687	2.11419	-0.0908734	0.0406777	2.25552	0.0440968	0.049143	2.28654	-0.0173953	0.0718711	2.3574	0.249449	1.35683	2.35751	0.127638	1.8347	2.38112	0.252702	1.07867	2.11125
3	0.015	0.381718	1.03461	2.31198	0.45979	1.52318	2.18162	0.488833	0.119513	2.12314	0.380723	0.12317	2.14512	0.425197	0.0717783	2.03835	0.455092	0.53128	2.21214	0.331067	0.506165	2.2185	0.516201	0.0447094	2.16877	0.386005	0.0426198	2.20495	0.412376	0.444872	2.23905	0.465856	0.367394	2.20534	0.466535	0.48088	2.18067	0.477255	0.705439	2.23633	0.409744	0.620022	2.1028	0.410676	0.702589	2.10301	0.521755	0.0582972	2.27654	0.391824	0.0510547	2.28399	0.449529	0.0691543	2.34583	0.0712487	1.06152	2.24887	0.0545088	1.51567	2.16716	-0.0387427	0.131195	2.12883	0.0680852	0.133106	2.16098	0.0213033	0.0716004	2.05298	0.00861434	0.535739	2.20641	0.132441	0.528386	2.22177	-0.095295	-0.0393925	2.14539	0.0581124	0.0457967	2.21206	0.0531801	0.468762	2.23145	0.0102713	0.382231	2.21745	-0.00221245	0.487035	2.18005	0.00483241	0.726145	2.26794	0.0185674	0.635473	2.12231	0.0270062	0.710713	2.11429	-0.0908514	0.0406867	2.25552	0.0440979	0.0491361	2.28655	-0.0174001	0.0718703	2.35741	0.249474	1.35689	2.35762	0.12904	1.83479	2.38239	0.252646	1.07867	2.11137
4	0.02	0.381698	1.03459	2.31208	0.459669	1.52319	2.18148	0.48882	0.119534	2.12314	0.380712	0.123147	2.14513	0.425448	0.0717704	2.03894	0.455081	0.531273	2.21218	0.331054	0.506148	2.21854	0.516178	0.0447072	2.16877	0.38601	0.04262	2.20494	0.412388	0.444883	2.2391	0.465848	0.367393	2.20536	0.466501	0.480883	2.18071	0.477225	0.705433	2.23638	0.409698	0.620028	2.10286	0.410771	0.70234	2.10304	0.521755	0.0583063	2.27654	0.391827	0.05106	2.284	0.449534	0.0691497	2.34583	0.0712145	1.06154	2.24908	0.0543613	1.51561	2.16731	-0.0387378	0.131195	2.12883	0.0680747	0.133116	2.16098	0.0213018	0.0716071	2.05298	0.00859149	0.53575	2.20648	0.132416	0.528407	2.22186	-0.0952263	-0.0391903	2.14545	0.0581128	0.0457964	2.21207	0.0531554	0.468764	2.23151	0.0102551	0.382228	2.21748	-0.00224086	0.48705	2.18011	0.00480947	0.726128	2.26805	0.0185226	0.635495	2.12239	0.0269573	0.710737	2.11439	-0.0908294	0.0406958	2.25553	0.044099	0.0491292	2.28657	-0.017405	0.0718696	2.35741	0.249502	1.35694	2.35773	0.130468	1.83487	2.38364	0.252585	1.07866	2.11149
5	0.025	0.381682	1.03458	2.31218	0.459546	1.52321	2.18133	0.488806	0.119555	2.12315	0.380702	0.123124	2.14514	0.4257	0.0717625	2.03954	0.455068	0.531266	2.21223	0.331041	0.506132	2.21859	0.516154	0.0447049	2.16876	0.386015	0.0426202	2.20493	0.412401	0.444894	2.23915	0.46584	0.367393	2.20538	0.466467	0.480885	2.18074	0.477195	0.705427	2.23644	0.409651	0.620034	2.10292	0.410868	0.70209	2.10307	0.521755	0.0583154	2.27653	0.39183	0.0510654	2.284	0.44954	0.0691451	2.34584	0.071185	1.06157	2.24929	0.0542156	1.51554	2.16745	-0.0387406	0.131195	2.12884	0.0680603	0.133126	2.16097	0.0213017	0.0716134	2.05298	0.00856596	0.535761	2.20654	0.132392	0.528434	2.22195	-0.0951576	-0.0389862	2.14551	0.0581117	0.0457973	2.21207	0.0531271	0.468766	2.23156	0.0102353	0.382225	2.21751	-0.00227243	0.487065	2.18016	0.00478236	0.726112	2.26814	0.0184787	0.63552	2.12247	0.026912	0.710759	2.11448	-0.0908073	0.0407048	2.25554	0.0441002	0.0491225	2.28658	-0.0174099	0.0718688	2.35741	0.249534	1.357	2.35784	0.131918	1.83495	2.38486	0.252522	1.07865	2.11162
6	0.03	0.381669	1.03457	2.31229	0.459423	1.52323	2.18119	0.488793	0.119577	2.12315	0.380692	0.123101	2.14514	0.425951	0.0717546	2.04013	0.455055	0.53126	2.21227	0.331028	0.506116	2.21864	0.516129	0.0447026	2.16876	0.38602	0.0426204	2.20492	0.412413	0.444904	2.23919	0.465833	0.367393	2.2054	0.466434	0.480887	2.18078	0.477165	0.70542	2.23649	0.409605	0.620041	2.10299	0.410964	0.701841	2.10311	0.521755	0.0583245	2.27652	0.391833	0.0510708	2.28401	0.449544	0.0691406	2.34585	0.0711591	1.0616	2.2495	0.0540707	1.51547	2.16759	-0.0387496	0.131197	2.12884	0.0680427	0.133136	2.16097	0.0213028	0.0716191	2.05297	0.00853843	0.535771	2.2066	0.13237	0.528464	2.22205	-0.095089	-0.0387821	2.14557	0.0581094	0.0457993	2.21207	0.0530961	0.468769	2.23161	0.0102129	0.382223	2.21754	-0.00230631	0.487081	2.18021	0.00475194	0.726097	2.26823	0.0184358	0.635546	2.12255	0.0268696	0.710779	2.11457	-0.0907853	0.0407139	2.25554	0.0441013	0.0491156	2.2866	-0.0174148	0.071868	2.35742	0.249568	1.35706	2.35795	0.133385	1.83502	2.38604	0.252456	1.07863	2.11176
7	0.035	0.381658	1.03457	2.31239	0.459298	1.52325	2.18104	0.48878	0.119598	2.12316	0.380682	0.123078	2.14515	0.426203	0.0717468	2.04072	0.455042	0.531253	2.21232	0.331015	0.5061	2.21868	0.516106	0.0447004	2.16876	0.386025	0.0426205	2.20491	0.412425	0.444916	2.23923	0.465825	0.367393	2.20542	0.4664	0.48089	2.18082	0.477135	0.705415	2.23655	0.409559	0.620047	2.10304	0.411061	0.701591	2.10314	0.521754	0.0583336	2.27651	0.391836	0.0510762	2.28402	0.44955	0.069136	2.34585	0.0711357	1.06163	2.24971	0.0539259	1.51541	2.16772	-0.0387635	0.1312	2.12884	0.0680228	0.133144	2.16096	0.0213044	0.0716242	2.05297	0.00850955	0.53578	2.20666	0.132348	0.528496	2.22215	-0.0950203	-0.038578	2.14563	0.0581061	0.0458021	2.21207	0.0530634	0.468773	2.23166	0.0101888	0.382222	2.21756	-0.00234163	0.487096	2.18026	0.00471908	0.726083	2.26832	0.0183938	0.635572	2.12263	0.0268299	0.710797	2.11466	-0.0907633	0.040723	2.25555	0.0441025	0.0491088	2.28662	-0.0174197	0.0718673	2.35742	0.249604	1.35712	2.35806	0.134867	1.83509	2.38719	0.252388	1.07861	2.11189
8	0.04	0.381649	1.03458	2.3125	0.459172	1.52328	2.18089	0.488766	0.119619	2.12316	0.380672	0.123055	2.14516	0.426455	0.071739	2.04132	0.455029	0.531247	2.21237	0.331002	0.506083	2.21873	0.516082	0.0446981	2.16875	0.38603	0.0426207	2.2049	0.412437	0.444926	2.23928	0.465817	0.367392	2.20544	0.466367	0.480893	2.18086	0.477105	0.705409	2.2366	0.409512	0.620052	2.10311	0.411157	0.701342	2.10317	0.521754	0.0583428	2.2765	0.391839	0.0510816	2.28402	0.449555	0.0691314	2.34586	0.0711137	1.06166	2.24992	0.0537803	1.51534	2.16786	-0.0387807	0.131204	2.12884	0.0680012	0.133152	2.16095	0.0213063	0.0716286	2.05297	0.00847996	0.535788	2.20673	0.132328	0.528529	2.22225	-0.0949516	-0.0383739	2.14575	0.0581021	0.0458055	2.21207	0.0530302	0.468776	2.2317	0.010164	0.38222	2.21759	-0.00237752	0.48711	2.18031	0.00468461	0.726069	2.2684	0.0183531	0.635598	2.12271	0.0267924	0.710813	2.11475	-0.0907413	0.0407321	2.25556	0.0441036	0.0491019	2.28663	-0.0174246	0.0718666	2.35742	0.249641	1.35717	2.35817	0.136359	1.83515	2.38832	0.25232	1.07859	2.11203
